<?xml version="1.0" encoding="UTF-8" standalone="no"?>
<!-- Created with Inkscape (http://www.inkscape.org/) -->

<svg
   xmlns:dc="http://purl.org/dc/elements/1.1/"
   xmlns:cc="http://creativecommons.org/ns#"
   xmlns:rdf="http://www.w3.org/1999/02/22-rdf-syntax-ns#"
   xmlns:svg="http://www.w3.org/2000/svg"
   xmlns="http://www.w3.org/2000/svg"
   xmlns:sodipodi="http://sodipodi.sourceforge.net/DTD/sodipodi-0.dtd"
   xmlns:inkscape="http://www.inkscape.org/namespaces/inkscape"
   version="1.0"
   width="580"
   height="580"
   id="svg2"
   sodipodi:version="0.32"
   inkscape:version="0.91 r13725"
   sodipodi:docname="taximk_icon.svg"
   inkscape:output_extension="org.inkscape.output.svg.inkscape">
  <defs
     id="defs22">
    <inkscape:perspective
       sodipodi:type="inkscape:persp3d"
       inkscape:vp_x="0 : 290 : 1"
       inkscape:vp_y="0 : 1000 : 0"
       inkscape:vp_z="580 : 290 : 1"
       inkscape:persp3d-origin="290 : 193.33333 : 1"
       id="perspective24" />
    <marker
       viewBox="0 0 10 10"
       refY="5"
       refX="10"
       orient="auto"
       markerWidth="4"
       markerUnits="strokeWidth"
       markerHeight="3"
       id="ArrowStart">
      <path
         id="path3568"
         d="M 10 0 L 0 5 L 10 10 z" />
    </marker>
    <marker
       viewBox="0 0 10 10"
       refY="5"
       refX="0"
       orient="auto"
       markerWidth="4"
       markerUnits="strokeWidth"
       markerHeight="3"
       id="ArrowEnd">
      <path
         id="path3565"
         d="M 0 0 L 10 5 L 0 10 z" />
    </marker>
    <inkscape:perspective
       id="perspective2683"
       inkscape:persp3d-origin="306.082 : 204.39034 : 1"
       inkscape:vp_z="612.164 : 306.58551 : 1"
       inkscape:vp_y="0 : 1000 : 0"
       inkscape:vp_x="0 : 306.58551 : 1"
       sodipodi:type="inkscape:persp3d" />
    <marker
       viewBox="0 0 10 10"
       refY="5"
       refX="10"
       orient="auto"
       markerWidth="4"
       markerUnits="strokeWidth"
       markerHeight="3"
       id="marker2959">
      <path
         id="path2626"
         d="M 10 0 L 0 5 L 10 10 z" />
    </marker>
    <marker
       viewBox="0 0 10 10"
       refY="5"
       refX="0"
       orient="auto"
       markerWidth="4"
       markerUnits="strokeWidth"
       markerHeight="3"
       id="marker2956">
      <path
         id="path2623"
         d="M 0 0 L 10 5 L 0 10 z" />
    </marker>
    <inkscape:perspective
       id="perspective2953"
       inkscape:persp3d-origin="306.082 : 204.39034 : 1"
       inkscape:vp_z="612.164 : 306.58551 : 1"
       inkscape:vp_y="0 : 1000 : 0"
       inkscape:vp_x="0 : 306.58551 : 1"
       sodipodi:type="inkscape:persp3d" />
    <marker
       viewBox="0 0 10 10"
       refY="5"
       refX="10"
       orient="auto"
       markerWidth="4"
       markerUnits="strokeWidth"
       markerHeight="3"
       id="marker3077">
      <path
         id="path3298"
         d="M 10 0 L 0 5 L 10 10 z" />
    </marker>
    <marker
       viewBox="0 0 10 10"
       refY="5"
       refX="0"
       orient="auto"
       markerWidth="4"
       markerUnits="strokeWidth"
       markerHeight="3"
       id="marker3074">
      <path
         id="path3295"
         d="M 0 0 L 10 5 L 0 10 z" />
    </marker>
    <inkscape:perspective
       id="perspective3071"
       inkscape:persp3d-origin="180.936 : 163.92867 : 1"
       inkscape:vp_z="361.87201 : 245.89301 : 1"
       inkscape:vp_y="0 : 1000 : 0"
       inkscape:vp_x="0 : 245.89301 : 1"
       sodipodi:type="inkscape:persp3d" />
    <marker
       viewBox="0 0 10 10"
       refY="5"
       refX="10"
       orient="auto"
       markerWidth="4"
       markerUnits="strokeWidth"
       markerHeight="3"
       id="marker3188">
      <path
         id="path3318"
         d="M 10 0 L 0 5 L 10 10 z" />
    </marker>
    <marker
       viewBox="0 0 10 10"
       refY="5"
       refX="0"
       orient="auto"
       markerWidth="4"
       markerUnits="strokeWidth"
       markerHeight="3"
       id="marker3185">
      <path
         id="path3315"
         d="M 0 0 L 10 5 L 0 10 z" />
    </marker>
    <inkscape:perspective
       id="perspective3182"
       inkscape:persp3d-origin="306.082 : 204.39034 : 1"
       inkscape:vp_z="612.164 : 306.58551 : 1"
       inkscape:vp_y="0 : 1000 : 0"
       inkscape:vp_x="0 : 306.58551 : 1"
       sodipodi:type="inkscape:persp3d" />
  </defs>
  <metadata
     id="metadata10">
    <rdf:RDF>
      <cc:Work
         rdf:about="">
        <dc:format>image/svg+xml</dc:format>
        <dc:type
           rdf:resource="http://purl.org/dc/dcmitype/StillImage" />
        <cc:license
           rdf:resource="http://web.resource.org/cc/PublicDomain" />
        <dc:language>en</dc:language>
        <dc:title></dc:title>
      </cc:Work>
    </rdf:RDF>
  </metadata>
  <sodipodi:namedview
     inkscape:window-height="1024"
     inkscape:window-width="1920"
     inkscape:pageshadow="2"
     inkscape:pageopacity="0.0"
     guidetolerance="10.0"
     gridtolerance="10.0"
     objecttolerance="10.0"
     borderopacity="1.0"
     bordercolor="#666666"
     pagecolor="#ffffff"
     id="base"
     showgrid="false"
     inkscape:zoom="0.71576433"
     inkscape:cx="-228.39549"
     inkscape:cy="330.21887"
     inkscape:window-x="0"
     inkscape:window-y="24"
     inkscape:current-layer="svg2"
     inkscape:window-maximized="1" />
  <g
     id="g2319"
     transform="translate(879.29125,36.805119)">
    <path
       id="path2323"
       style="fill:#ffffff;stroke:none"
       d="" />
  </g>
  <g
     id="g2325"
     transform="translate(879.29125,36.805119)">
    <path
       id="path2329"
       style="fill:#ffffff;stroke:none"
       d="" />
  </g>
  <g
     id="g4266"
     transform="translate(502.95884,-1.3971079)">
    <circle
       r="64"
       cy="269.92685"
       cx="-223.08537"
       id="path4264"
       style="fill:#000000;fill-opacity:1;stroke:none" />
    <g
       style="fill:#ffe83c;fill-opacity:1"
       transform="matrix(0.23197745,0,0,0.23197745,-294.09121,191.39799)"
       id="g3324">
      <path
         inkscape:connector-curvature="0"
         id="path3326"
         transform="translate(10.51126,70.239291)"
         d="m 269.59375,90.625 c -7.5,0 -12.12499,4.312502 -12.125,12.8125 l 0,21.25 -45.53125,0 c -24.5,0 -37.49999,13.25 -43.5,28.75 l -31.875,81.40625 c -12.626,1.603 -34.96875,16.26649 -34.96875,44.0625 l 0,103.5625 31,0 0,33.09375 c 0,40.736 58.21874,40.25699 58.21875,0 l 0,-33.09375 104.75,0 0.0625,0 104.71875,0 0,33.09375 c 0,40.257 58.24999,40.73599 58.25,0 l 0,-33.09375 30.96875,0 0,-103.5625 c 0,-27.796 -22.374,-42.4595 -35,-44.0625 l -31.875,-81.40625 c -6,-15.5 -19.00001,-28.75 -43.5,-28.75 l -45,0 0,-21.25 c 0,-8.5 -4.625,-12.812503 -12.125,-12.8125 l -26.4375,0 -0.0625,0 -25.96875,0 z m -58.03125,63.71875 83.9375,0 0.0625,0 0.0625,0 83.9375,0 c 10.49999,0.097 15,6.59375 18,15.59375 l 24,62.96875 -125.9375,0 -0.0625,0 -0.0625,0 -125.9375,0 24,-62.96875 c 3,-9 7.5,-15.49675 18,-15.59375 z m -48.9375,109.9375 c 14.85499,0 26.90625,12.2785 26.90625,27.4375 0,15.15899 -12.05125,27.46875 -26.90625,27.46875 -14.85701,10e-6 -26.90625,-12.30975 -26.90625,-27.46875 0,-15.15901 12.04925,-27.4375 26.90625,-27.4375 z m 265.875,0 c 14.855,0 26.90624,12.27849 26.90625,27.4375 0,15.159 -12.05124,27.46876 -26.90625,27.46875 -14.856,0 -26.87498,-12.30976 -26.875,-27.46875 0,-15.159 12.01901,-27.4375 26.875,-27.4375 z"
         style="fill:#ffe83c;fill-opacity:1;stroke:none" />
      <g
         style="fill:#ffe83c;fill-opacity:1"
         id="g3328">
        <g
           style="fill:#ffe83c;fill-opacity:1"
           id="g3332">
          <g
             style="fill:#ffe83c;fill-opacity:1"
             id="g3334">
            <path
               inkscape:connector-curvature="0"
               d=""
               style="fill:#ffe83c;fill-opacity:1;stroke:none"
               id="path3338" />
          </g>
          <g
             style="fill:#ffe83c;fill-opacity:1"
             id="g3340">
            <path
               inkscape:connector-curvature="0"
               d=""
               style="fill:#ffe83c;fill-opacity:1;stroke:none"
               id="path3344" />
          </g>
        </g>
      </g>
    </g>
  </g>
</svg>
